HIERARCHY
ROOT Hips
{
	OFFSET 0.000000 0.000000 0.000000 
	CHANNELS 6 Xposition Yposition Zposition Zrotation Yrotation Xrotation
	JOINT LeftUpLeg
	{
		OFFSET 1.363060 -1.794630 0.839290 
		CHANNELS 3 Zrotation Yrotation Xrotation
		JOINT LeftLeg
		{
			OFFSET 2.448110 -6.726130 0.000000 
			CHANNELS 3 Zrotation Yrotation Xrotation
			JOINT LeftFoot
			{
				OFFSET 2.562200 -7.039590 0.000000 
				CHANNELS 3 Zrotation Yrotation Xrotation
				JOINT LeftToeBase
				{
					OFFSET 0.157640 -0.433110 2.322550 
					CHANNELS 3 Zrotation Yrotation Xrotation
					End Site
					{
						OFFSET 0.000000 0.000000 0.000000 
					}
				}
			}
		}
	}
	JOINT RightUpLeg
	{
		OFFSET -1.305520 -1.794630 0.839290 
		CHANNELS 3 Zrotation Yrotation Xrotation
		JOINT RightLeg
		{
			OFFSET -2.542530 -6.985550 0.000000 
			CHANNELS 3 Zrotation Yrotation Xrotation
			JOINT RightFoot
			{
				OFFSET -2.568260 -7.056230 0.000000 
				CHANNELS 3 Zrotation Yrotation Xrotation
				JOINT RightToeBase
				{
					OFFSET -0.164730 -0.452590 2.363150 
					CHANNELS 3 Zrotation Yrotation Xrotation
					End Site
					{
						OFFSET 0.000000 0.000000 0.000000 
					}
				}
			}
		}
	}
	JOINT Spine
	{
		OFFSET 0.028270 2.035590 -0.193380 
		CHANNELS 3 Zrotation Yrotation Xrotation
		JOINT Spine1
		{
			OFFSET 0.056720 2.048850 -0.042750 
			CHANNELS 3 Zrotation Yrotation Xrotation
			JOINT Neck1
			{
				OFFSET -0.054170 1.746240 0.172020 
				CHANNELS 3 Zrotation Yrotation Xrotation
				JOINT Head
				{
					OFFSET 0.104070 1.761360 -0.123970 
					CHANNELS 3 Zrotation Yrotation Xrotation
					End Site
					{
						OFFSET 0.000000 0.000000 0.000000 
					}
				}
			}
			JOINT LeftArm
			{
				OFFSET 3.362410 1.200890 -0.311210 
				CHANNELS 3 Zrotation Yrotation Xrotation
				JOINT LeftForeArm
				{
					OFFSET 4.983000 -0.000000 -0.000000 
					CHANNELS 3 Zrotation Yrotation Xrotation
					JOINT LeftHand
					{
						OFFSET 3.483560 -0.000000 -0.000000 
						CHANNELS 3 Zrotation Yrotation Xrotation
						JOINT LeftHandIndex1
						{
							OFFSET 0.715260 -0.000000 -0.000000 
							CHANNELS 3 Zrotation Yrotation Xrotation
							End Site
							{
								OFFSET 0.000000 0.000000 0.000000 
							}
						}
					}
				}
			}
			JOINT RightArm
			{
				OFFSET -3.136600 1.374050 -0.404650 
				CHANNELS 3 Zrotation Yrotation Xrotation
				JOINT RightForeArm
				{
					OFFSET -5.241900 -0.000000 -0.000000 
					CHANNELS 3 Zrotation Yrotation Xrotation
					JOINT RightHand
					{
						OFFSET -3.444170 -0.000000 -0.000000 
						CHANNELS 3 Zrotation Yrotation Xrotation
						JOINT RightHandIndex1
						{
							OFFSET -0.622530 -0.000000 -0.000000 
							CHANNELS 3 Zrotation Yrotation Xrotation
							End Site
							{
								OFFSET 0.000000 0.000000 0.000000 
							}
						}
					}
				}
			}
		}
	}
}
MOTION
Frames: 9
Frame Time: 0.041667
29.003321 17.657091 5.924219 41.691930 -85.073987 -40.155392 -22.981023 -6.778387 7.065275 -0.694048 5.852477 14.612793 1.327646 -2.907226 -4.670422 0.003200 0.368100 1.011400 1.911579 10.802291 -73.051039 -15.569893 -20.249084 72.594682 0.930062 -27.011603 30.102280 -1.162700 -6.845200 19.257700 1.805617 -7.882013 -5.111199 9.043846 -4.053767 -2.941866 5.148754 -0.944062 9.258148 1.967900 -0.322200 9.200400 -80.677982 -27.554719 49.372811 60.720005 -59.999015 -29.177897 -0.855629 1.746107 -3.149672 -7.125000 0.000000 0.000000 76.655963 -30.728613 1.217826 -7.986196 20.824510 -2.165246 -0.318977 0.915102 10.082527 7.125000 0.000000 0.000000 
28.863729 17.633674 5.913575 41.026464 -84.912806 -39.099778 -22.843763 -6.575066 7.163155 -0.706329 5.791260 14.447377 1.405458 -3.232640 -4.802387 0.001000 0.203600 0.559400 2.279753 10.430256 -71.424957 -15.158603 -20.129437 71.270635 0.900033 -27.373318 30.523122 -1.312600 -7.257000 20.478900 1.798030 -7.912425 -5.090510 8.962584 -4.087579 -2.635480 5.200512 -0.992537 9.147236 1.989400 -0.337500 9.134700 -81.086191 -26.828382 49.577224 60.292367 -59.984430 -28.883951 -0.845210 1.773980 -2.908230 -7.125000 0.000000 0.000000 77.241675 -30.134059 2.841314 -8.523631 21.719911 -2.395208 -0.313300 0.888126 8.671356 7.125000 0.000000 0.000000 
28.721602 17.609445 5.903133 40.319575 -84.749839 -38.026610 -22.690767 -6.362800 7.257626 -0.718503 5.724840 14.276951 1.475904 -3.537660 -4.866494 -0.000000 0.019000 0.052100 2.666291 10.058130 -69.693046 -14.728787 -19.992952 69.891497 0.870546 -27.685225 30.913032 -1.418300 -7.531700 21.300300 1.823614 -7.929168 -5.184561 9.086829 -4.072015 -2.857736 5.181258 -1.010089 9.114708 1.984300 -0.355100 9.069900 -81.681283 -25.662644 49.843558 59.729808 -59.938675 -28.459211 -0.840011 1.797753 -2.827645 -7.125000 0.000000 0.000000 77.613107 -29.913556 4.720431 -9.130692 22.692727 -2.634917 -0.321119 0.902441 7.059249 7.125000 0.000000 0.000000 
28.571365 17.585318 5.891475 39.065362 -84.580875 -36.454463 -22.524475 -6.200040 7.411985 -0.714467 5.721962 14.275687 1.521896 -3.729529 -4.952215 0.000700 -0.175700 -0.482800 3.176352 9.578158 -67.582910 -14.212877 -19.816826 68.256632 0.869790 -27.945219 31.180221 -1.630000 -8.048700 22.862200 1.807159 -7.895612 -5.152322 8.975085 -4.079866 -2.521755 5.207831 -1.167642 9.122084 1.998600 -0.425000 9.101200 -82.165922 -24.845143 50.190053 58.624030 -59.749363 -27.664237 -0.839576 1.808882 -2.894611 -7.125000 0.000000 0.000000 78.325491 -28.977769 6.127557 -9.729373 23.587231 -2.879678 -0.318187 0.895178 5.677244 7.125000 0.000000 0.000000 
28.421939 17.561394 5.880020 37.995358 -84.425892 -35.063104 -22.325835 -5.975422 7.534308 -0.714077 5.700669 14.229864 1.581163 -3.987695 -4.994827 0.003300 -0.370700 -1.018500 3.668822 9.119869 -65.549103 -13.710560 -19.629580 66.648058 0.841643 -28.188002 31.539213 -1.807000 -8.452000 24.095500 1.808267 -7.877795 -5.169884 8.951445 -4.076797 -2.413585 5.217994 -1.265014 9.112049 2.007300 -0.472200 9.090600 -82.677171 -23.855457 50.485426 57.615326 -59.566955 -26.941609 -0.832781 1.825949 -2.874524 -7.125000 0.000000 0.000000 78.883486 -28.304678 7.651713 -10.384989 24.557231 -3.156466 -0.318877 0.894473 4.279059 7.125000 0.000000 0.000000 
28.268559 17.537672 5.868058 36.877667 -84.286524 -33.647982 -22.103162 -5.730005 7.661759 -0.708616 5.695451 14.231424 1.637662 -4.239962 -5.006497 0.007700 -0.567600 -1.559800 4.206373 8.641481 -63.381543 -13.170337 -19.413208 64.924373 0.780328 -28.316080 31.961604 -1.973600 -8.810900 25.205600 1.810264 -7.844502 -5.189954 8.931414 -4.065481 -2.323913 5.221852 -1.367264 9.115950 2.014500 -0.523000 9.086700 -83.196538 -22.799668 50.793917 56.410665 -59.312902 -26.086010 -0.821951 1.842818 -2.860208 -7.125000 0.000000 0.000000 79.439106 -27.588567 9.153153 -11.097638 25.576737 -3.463891 -0.321204 0.895377 2.875043 7.125000 0.000000 0.000000 
28.110415 17.514153 5.855386 35.706110 -84.173236 -32.203603 -21.849917 -5.469050 7.795936 -0.697440 5.709641 14.289878 1.692781 -4.490975 -4.988301 0.014100 -0.765400 -2.103400 4.800382 8.147946 -61.079658 -12.587610 -19.163110 63.073903 0.667542 -28.285321 32.487764 -2.111400 -9.094400 26.091000 1.813577 -7.796668 -5.205848 8.909867 -4.048576 -2.221069 5.222363 -1.469710 9.120848 2.021900 -0.574800 9.080100 -83.712375 -21.694719 51.104608 55.009289 -58.976279 -25.104425 -0.803882 1.861446 -2.833421 -7.125000 0.000000 0.000000 79.993403 -26.812245 10.624879 -11.873060 26.650604 -3.808903 -0.324403 0.894881 1.470232 7.125000 0.000000 0.000000 
27.947304 17.491141 5.841194 34.512412 -84.100235 -30.757464 -21.564681 -5.211678 7.932867 -0.679121 5.749345 14.421347 1.745074 -4.735518 -4.939120 0.022600 -0.971100 -2.669200 5.455400 7.654306 -58.652439 -11.954666 -18.873773 61.090174 0.526524 -28.035772 32.997833 -2.148600 -9.168900 26.325200 1.819728 -7.732540 -5.220332 8.893411 -4.024253 -2.113666 5.219894 -1.562742 9.125672 2.029500 -0.623000 9.068300 -84.219391 -20.530044 51.409937 53.421343 -58.547487 -24.008459 -0.776429 1.882644 -2.784655 -7.125000 0.000000 0.000000 80.539361 -25.995579 12.092129 -12.725763 27.793969 -4.200854 -0.329352 0.893269 0.059977 7.125000 0.000000 0.000000 
27.778211 17.468839 5.825177 33.267617 -84.073379 -29.285376 -21.243294 -4.964664 8.070420 -0.650975 5.824627 14.654021 1.797535 -4.987432 -4.854168 0.034100 -1.192600 -3.278800 6.177974 7.161955 -56.097646 -11.261198 -18.539337 58.997278 0.492127 -27.455572 32.945335 -1.920800 -8.699100 24.858600 1.828967 -7.652902 -5.231302 8.882150 -3.993476 -1.990974 5.214478 -1.645987 9.133359 2.038000 -0.667800 9.051400 -84.710245 -19.301825 51.701394 51.669673 -58.021938 -22.819276 -0.740102 1.906848 -2.711871 -7.125000 0.000000 0.000000 81.073713 -25.135432 13.563236 -13.662327 29.007882 -4.646592 -0.335633 0.889712 -1.343873 7.125000 0.000000 0.000000 
